<svg width="50" height="50" viewBox="0 0 50 50" fill="none" xmlns="http://www.w3.org/2000/svg">
<path d="M49.499 25.0005C49.499 38.5315 38.53 49.5005 24.999 49.5005C11.4681 49.5005 0.499029 38.5315 0.499029 25.0005C0.499029 11.4695 11.4681 0.500494 24.999 0.500494C38.53 0.500494 49.499 11.4695 49.499 25.0005Z" stroke="white"/>
<path d="M20.4037 24.297L25.7163 20.2947C26.0898 20.0133 26.6709 19.9195 27.1689 20.0758C27.667 20.2321 27.999 20.6074 27.999 21.0138V29.0184C27.999 29.4249 27.667 29.7688 27.1689 29.9252C26.6709 30.0815 26.0898 29.9877 25.7163 29.7063L20.4037 25.704C19.8641 25.3288 19.8641 24.6722 20.4037 24.297Z" fill="white"/>
</svg>
