<svg width="49" height="36" viewBox="0 0 49 36" fill="none" xmlns="http://www.w3.org/2000/svg">
<path d="M9.98883 1.59862L0.900494 17.392C0.341816 18.3628 0.333385 19.5556 0.878282 20.5342L2.78393 23.9568C3.34687 24.9679 4.41328 25.5947 5.57049 25.5947H9.41976C10.6251 25.5947 11.7274 24.9152 12.269 23.8384L13.4395 21.5113C13.9636 20.4694 15.437 20.4307 16.0151 21.4437L23.4032 34.3913C23.9708 35.386 25.0281 36 26.1733 36H29.7661C31.3004 36 32.7157 35.1735 33.4697 33.8372L34.3332 32.3069C35.2582 30.6675 35.2472 28.6611 34.3042 27.0319L19.5794 1.59168C19.0092 0.60658 17.9573 0 16.8191 0H12.7532C11.6121 0 10.558 0.609609 9.98883 1.59862Z" fill="white"/>
<path d="M36.2054 23.0506L27.6274 8.01454C27.0578 7.01602 27.0696 5.7882 27.6583 4.80081L29.5929 1.55605C30.1683 0.591088 31.2089 0 32.3323 0H36.2468C37.3879 0 38.442 0.609609 39.0112 1.59862L48.078 17.3546C48.6483 18.3456 48.6445 19.5659 48.0681 20.5532L46.0139 24.0723C45.4609 25.0197 44.4599 25.6164 43.3635 25.6522L40.9958 25.7294C39.0258 25.7937 37.182 24.7626 36.2054 23.0506Z" fill="white"/>
</svg>
