<?xml version="1.0" encoding="UTF-8" standalone="no"?>
<!DOCTYPE svg PUBLIC "-//W3C//DTD SVG 1.1//EN" "http://www.w3.org/Graphics/SVG/1.1/DTD/svg11.dtd">
<svg width="36" height="36" viewBox="0 0 359 496" version="1.1" xmlns="http://www.w3.org/2000/svg" xmlns:xlink="http://www.w3.org/1999/xlink" xml:space="preserve" xmlns:serif="http://www.serif.com/" style="fill-rule:evenodd;clip-rule:evenodd;stroke-linejoin:round;stroke-miterlimit:2;">
    <g transform="matrix(0.82588,0,0,0.82588,-270.063,-183.345)">
        <path d="M327,778.404L327.95,343.707C327.983,329.966 334.511,317.051 345.552,308.886L451.551,230.497C465.564,220.134 484.409,219.169 499.404,228.047L702.848,348.491C710.846,353.227 717.114,360.409 720.729,368.979L757.585,456.376C761.83,466.442 762.128,477.739 758.421,488.015L723.18,585.692C718.182,599.546 706.508,609.919 692.174,613.243L562.013,643.432C530.648,650.758 503.821,620.07 515.233,589.921L541.179,521.371C545.475,510.022 554.319,500.99 565.568,496.465L584.306,488.927C601.203,482.131 602.716,458.773 586.836,449.85L506.969,404.968C492.513,396.844 474.666,407.302 474.665,423.899L474.654,741.199C474.653,756.315 466.799,770.343 453.92,778.234L393.018,815.546C364.075,833.278 326.918,812.373 327,778.404Z" style="fill:white;fill-rule:nonzero;"/>
    </g>
</svg>
