<svg width="50" height="50" viewBox="0 0 50 50" fill="none" xmlns="http://www.w3.org/2000/svg">
<path d="M0.5 25C0.5 11.469 11.469 0.5 25 0.5C38.531 0.5 49.5 11.469 49.5 25C49.5 38.531 38.531 49.5 25 49.5C11.469 49.5 0.5 38.531 0.5 25Z" stroke="white" stroke-opacity="0.48"/>
<path d="M29.5953 25.7035L24.2827 29.7058C23.9092 29.9872 23.3281 30.081 22.8301 29.9247C22.332 29.7683 22 29.3931 22 28.9867V20.9821C22 20.5756 22.332 20.2317 22.8301 20.0753C23.3281 19.919 23.9092 20.0128 24.2827 20.2942L29.5953 24.2965C30.1349 24.6717 30.1349 25.3283 29.5953 25.7035Z" fill="white"/>
</svg>
