<svg width="20" height="32" viewBox="0 0 20 32" fill="none" xmlns="http://www.w3.org/2000/svg">
<g clip-path="url(#clip0_11_211)">
<path d="M10.743 8.45655V14.257L16.5711 14.2847C17.2616 14.257 17.8417 14.8371 17.8141 15.5276C17.8417 16.2182 17.2616 16.7982 16.5711 16.7706H10.7706L10.743 22.5987C10.7706 23.2892 10.1906 23.8693 9.50003 23.8417C8.8095 23.8693 8.22945 23.2892 8.25707 22.5987L8.22945 16.7706H2.42897C1.73843 16.7982 1.15838 16.2182 1.18601 15.5276C1.15838 14.8371 1.73843 14.257 2.42897 14.2847L8.25707 14.257V8.45655C8.22945 7.76602 8.8095 7.18597 9.50003 7.21359C10.1906 7.18597 10.7706 7.76602 10.743 8.45655Z" fill="#F30745"/>
</g>
<defs>
<clipPath id="clip0_11_211">
<rect width="20" height="32" fill="white"/>
</clipPath>
</defs>
</svg>
