<svg width="50" height="50" viewBox="0 0 50 50" fill="none" xmlns="http://www.w3.org/2000/svg">
<path d="M49.499 25C49.499 38.531 38.53 49.5 24.999 49.5C11.4681 49.5 0.499029 38.531 0.499029 25C0.499029 11.469 11.4681 0.500006 24.999 0.500006C38.53 0.500006 49.499 11.469 49.499 25Z" stroke="white" stroke-opacity="0.48"/>
<path d="M20.4037 24.2965L25.7163 20.2942C26.0898 20.0128 26.6709 19.919 27.1689 20.0753C27.667 20.2317 27.999 20.6069 27.999 21.0134V29.0179C27.999 29.4244 27.667 29.7683 27.1689 29.9247C26.6709 30.081 26.0898 29.9872 25.7163 29.7058L20.4037 25.7035C19.8641 25.3283 19.8641 24.6717 20.4037 24.2965Z" fill="white"/>
</svg>
